<?xml version="1.0" encoding="utf-8" standalone="no"?>
<!DOCTYPE svg PUBLIC "-//W3C//DTD SVG 1.1//EN"
  "http://www.w3.org/Graphics/SVG/1.1/DTD/svg11.dtd">
<svg xmlns:xlink="http://www.w3.org/1999/xlink" width="547.2pt" height="345.6pt" viewBox="0 0 547.2 345.6" xmlns="http://www.w3.org/2000/svg" version="1.1">
 <metadata>
  <rdf:RDF xmlns:dc="http://purl.org/dc/elements/1.1/" xmlns:cc="http://creativecommons.org/ns#" xmlns:rdf="http://www.w3.org/1999/02/22-rdf-syntax-ns#">
   <cc:Work>
    <dc:type rdf:resource="http://purl.org/dc/dcmitype/StillImage"/>
    <dc:date>2026-09-04T23:35:27.149001</dc:date>
    <dc:format>image/svg+xml</dc:format>
    <dc:creator>
     <cc:Agent>
      <dc:title>Matplotlib v3.11.0, https://matplotlib.org/</dc:title>
     </cc:Agent>
    </dc:creator>
   </cc:Work>
  </rdf:RDF>
 </metadata>
 <defs>
  <style type="text/css">*{stroke-linejoin: round; stroke-linecap: butt}</style>
 </defs>
 <g id="figure_1">
  <g id="patch_1">
   <path d="M 0 345.6 
L 547.2 345.6 
L 547.2 0 
L 0 0 
z
" style="fill: #ffffff"/>
  </g>
  <g id="axes_1">
   <g id="patch_2">
    <path d="M 71.136 283.392 
L 536.256 283.392 
L 536.256 20.736 
L 71.136 20.736 
z
" style="fill: #fbfcfe"/>
   </g>
   <g id="matplotlib.axis_1">
    <g id="xtick_1">
     <g id="line2d_1">
      <path d="M 87.105785 283.392 
L 87.105785 20.736 
" clip-path="url(#pd52f255b84)" style="fill: none; stroke: #d9e1ea; stroke-width: 0.7; stroke-linecap: square"/>
     </g>
     <g id="line2d_2">
      <defs>
       <path id="ma63fc06d54" d="M 0 0 
L 0 3.5 
" style="stroke: #000000; stroke-width: 0.8"/>
      </defs>
      <g>
       <use xlink:href="#ma63fc06d54" x="87.105785" y="283.392" style="stroke: #000000; stroke-width: 0.8"/>
      </g>
     </g>
     <g id="text_1">
      <text style="font-size: 8.5px; font-family: 'SimSun'; text-anchor: middle" x="87.105785" y="297.696687" transform="rotate(-0 87.105785 297.696687)">0</text>
     </g>
    </g>
    <g id="xtick_2">
     <g id="line2d_3">
      <path d="M 186.916944 283.392 
L 186.916944 20.736 
" clip-path="url(#pd52f255b84)" style="fill: none; stroke: #d9e1ea; stroke-width: 0.7; stroke-linecap: square"/>
     </g>
     <g id="line2d_4">
      <g>
       <use xlink:href="#ma63fc06d54" x="186.916944" y="283.392" style="stroke: #000000; stroke-width: 0.8"/>
      </g>
     </g>
     <g id="text_2">
      <text style="font-size: 8.5px; font-family: 'SimSun'; text-anchor: middle" x="186.916944" y="297.696687" transform="rotate(-0 186.916944 297.696687)">5</text>
     </g>
    </g>
    <g id="xtick_3">
     <g id="line2d_5">
      <path d="M 286.728103 283.392 
L 286.728103 20.736 
" clip-path="url(#pd52f255b84)" style="fill: none; stroke: #d9e1ea; stroke-width: 0.7; stroke-linecap: square"/>
     </g>
     <g id="line2d_6">
      <g>
       <use xlink:href="#ma63fc06d54" x="286.728103" y="283.392" style="stroke: #000000; stroke-width: 0.8"/>
      </g>
     </g>
     <g id="text_3">
      <text style="font-size: 8.5px; font-family: 'SimSun'; text-anchor: middle" x="286.728103" y="297.696687" transform="rotate(-0 286.728103 297.696687)">10</text>
     </g>
    </g>
    <g id="xtick_4">
     <g id="line2d_7">
      <path d="M 386.539262 283.392 
L 386.539262 20.736 
" clip-path="url(#pd52f255b84)" style="fill: none; stroke: #d9e1ea; stroke-width: 0.7; stroke-linecap: square"/>
     </g>
     <g id="line2d_8">
      <g>
       <use xlink:href="#ma63fc06d54" x="386.539262" y="283.392" style="stroke: #000000; stroke-width: 0.8"/>
      </g>
     </g>
     <g id="text_4">
      <text style="font-size: 8.5px; font-family: 'SimSun'; text-anchor: middle" x="386.539262" y="297.696687" transform="rotate(-0 386.539262 297.696687)">15</text>
     </g>
    </g>
    <g id="xtick_5">
     <g id="line2d_9">
      <path d="M 486.350421 283.392 
L 486.350421 20.736 
" clip-path="url(#pd52f255b84)" style="fill: none; stroke: #d9e1ea; stroke-width: 0.7; stroke-linecap: square"/>
     </g>
     <g id="line2d_10">
      <g>
       <use xlink:href="#ma63fc06d54" x="486.350421" y="283.392" style="stroke: #000000; stroke-width: 0.8"/>
      </g>
     </g>
     <g id="text_5">
      <text style="font-size: 8.5px; font-family: 'SimSun'; text-anchor: middle" x="486.350421" y="297.696687" transform="rotate(-0 486.350421 297.696687)">20</text>
     </g>
    </g>
    <g id="text_6">
     <text style="font-size: 9.5px; font-family: 'SimSun'; text-anchor: middle" x="303.696" y="311.056062" transform="rotate(-0 303.696 311.056062)">浪费率（%）</text>
    </g>
   </g>
   <g id="matplotlib.axis_2">
    <g id="ytick_1">
     <g id="line2d_11">
      <path d="M 71.136 230.361375 
L 536.256 230.361375 
" clip-path="url(#pd52f255b84)" style="fill: none; stroke: #d9e1ea; stroke-width: 0.7; stroke-linecap: square"/>
     </g>
     <g id="line2d_12">
      <defs>
       <path id="m1580c75726" d="M 0 0 
L -3.5 0 
" style="stroke: #000000; stroke-width: 0.8"/>
      </defs>
      <g>
       <use xlink:href="#m1580c75726" x="71.136" y="230.361375" style="stroke: #000000; stroke-width: 0.8"/>
      </g>
     </g>
     <g id="text_7">
      <text style="font-size: 8.5px; font-family: 'SimSun'; text-anchor: end" x="64.136" y="234.013718" transform="rotate(-0 64.136 234.013718)">40</text>
     </g>
    </g>
    <g id="ytick_2">
     <g id="line2d_13">
      <path d="M 71.136 176.008572 
L 536.256 176.008572 
" clip-path="url(#pd52f255b84)" style="fill: none; stroke: #d9e1ea; stroke-width: 0.7; stroke-linecap: square"/>
     </g>
     <g id="line2d_14">
      <g>
       <use xlink:href="#m1580c75726" x="71.136" y="176.008572" style="stroke: #000000; stroke-width: 0.8"/>
      </g>
     </g>
     <g id="text_8">
      <text style="font-size: 8.5px; font-family: 'SimSun'; text-anchor: end" x="64.136" y="179.660916" transform="rotate(-0 64.136 179.660916)">45</text>
     </g>
    </g>
    <g id="ytick_3">
     <g id="line2d_15">
      <path d="M 71.136 121.655769 
L 536.256 121.655769 
" clip-path="url(#pd52f255b84)" style="fill: none; stroke: #d9e1ea; stroke-width: 0.7; stroke-linecap: square"/>
     </g>
     <g id="line2d_16">
      <g>
       <use xlink:href="#m1580c75726" x="71.136" y="121.655769" style="stroke: #000000; stroke-width: 0.8"/>
      </g>
     </g>
     <g id="text_9">
      <text style="font-size: 8.5px; font-family: 'SimSun'; text-anchor: end" x="64.136" y="125.308113" transform="rotate(-0 64.136 125.308113)">50</text>
     </g>
    </g>
    <g id="ytick_4">
     <g id="line2d_17">
      <path d="M 71.136 67.302966 
L 536.256 67.302966 
" clip-path="url(#pd52f255b84)" style="fill: none; stroke: #d9e1ea; stroke-width: 0.7; stroke-linecap: square"/>
     </g>
     <g id="line2d_18">
      <g>
       <use xlink:href="#m1580c75726" x="71.136" y="67.302966" style="stroke: #000000; stroke-width: 0.8"/>
      </g>
     </g>
     <g id="text_10">
      <text style="font-size: 8.5px; font-family: 'SimSun'; text-anchor: end" x="64.136" y="70.95531" transform="rotate(-0 64.136 70.95531)">55</text>
     </g>
    </g>
    <g id="text_11">
     <text style="font-size: 9.5px; font-family: 'SimSun'; text-anchor: middle" x="50.300062" y="152.064" transform="rotate(-90 50.300062 152.064)">总利润（百万元）</text>
    </g>
   </g>
   <g id="patch_3">
    <path d="M 123.037803 249.928384 
L 170.947159 249.928384 
L 170.947159 226.01315 
L 123.037803 226.01315 
L 123.037803 249.928384 
z
" clip-path="url(#pd52f255b84)" style="fill: none; stroke: #9aa5b1; stroke-width: 0.7; stroke-linejoin: miter"/>
   </g>
   <g id="patch_4">
    <path d="M 71.136 283.392 
L 71.136 20.736 
" style="fill: none; stroke: #000000; stroke-width: 0.8; stroke-linejoin: miter; stroke-linecap: square"/>
   </g>
   <g id="patch_5">
    <path d="M 71.136 283.392 
L 536.256 283.392 
" style="fill: none; stroke: #000000; stroke-width: 0.8; stroke-linejoin: miter; stroke-linecap: square"/>
   </g>
   <g id="PathCollection_1">
    <defs>
     <path id="m5a8f672a77" d="M 0 5.59017 
C 1.48253 5.59017 2.90454 5.001154 3.952847 3.952847 
C 5.001154 2.90454 5.59017 1.48253 5.59017 0 
C 5.59017 -1.48253 5.001154 -2.90454 3.952847 -3.952847 
C 2.90454 -5.001154 1.48253 -5.59017 0 -5.59017 
C -1.48253 -5.59017 -2.90454 -5.001154 -3.952847 -3.952847 
C -5.001154 -2.90454 -5.59017 -1.48253 -5.59017 0 
C -5.59017 1.48253 -5.001154 2.90454 -3.952847 3.952847 
C -2.90454 5.001154 -1.48253 5.59017 0 5.59017 
z
" style="stroke: #ffffff"/>
    </defs>
    <g clip-path="url(#pd52f255b84)">
     <use xlink:href="#m5a8f672a77" x="153.806579" y="235.95608" style="fill: #2f6690; stroke: #ffffff"/>
    </g>
   </g>
   <g id="PathCollection_2">
    <g clip-path="url(#pd52f255b84)">
     <use xlink:href="#m5a8f672a77" x="142.597521" y="239.28677" style="fill: #2f6690; stroke: #ffffff"/>
    </g>
   </g>
   <g id="PathCollection_3">
    <g clip-path="url(#pd52f255b84)">
     <use xlink:href="#m5a8f672a77" x="151.512254" y="244.399686" style="fill: #2f6690; stroke: #ffffff"/>
    </g>
   </g>
   <g id="PathCollection_4">
    <defs>
     <path id="me5301b776a" d="M 0 5.59017 
C 1.48253 5.59017 2.90454 5.001154 3.952847 3.952847 
C 5.001154 2.90454 5.59017 1.48253 5.59017 0 
C 5.59017 -1.48253 5.001154 -2.90454 3.952847 -3.952847 
C 2.90454 -5.001154 1.48253 -5.59017 0 -5.59017 
C -1.48253 -5.59017 -2.90454 -5.001154 -3.952847 -3.952847 
C -5.001154 -2.90454 -5.59017 -1.48253 -5.59017 0 
C -5.59017 1.48253 -5.001154 2.90454 -3.952847 3.952847 
C -2.90454 5.001154 -1.48253 5.59017 0 5.59017 
z
" style="stroke: #ffffff"/>
    </defs>
    <g clip-path="url(#pd52f255b84)">
     <use xlink:href="#me5301b776a" x="87.105785" y="32.674909" style="fill: #b84a62; stroke: #ffffff"/>
    </g>
   </g>
   <g id="PathCollection_5">
    <defs>
     <path id="mc5ce5f8507" d="M -5.59017 5.59017 
L 5.59017 5.59017 
L 5.59017 -5.59017 
L -5.59017 -5.59017 
z
" style="stroke: #ffffff"/>
    </defs>
    <g clip-path="url(#pd52f255b84)">
     <use xlink:href="#mc5ce5f8507" x="492.313171" y="271.453091" style="fill: #3d8b8b; stroke: #ffffff"/>
    </g>
   </g>
   <g id="text_12">
    <g id="patch_6">
     <path d="M 380.313171 263.857778 
L 447.813171 263.857778 
Q 449.163171 263.857778 449.163171 262.507778 
L 449.163171 255.007778 
Q 449.163171 253.657778 447.813171 253.657778 
L 380.313171 253.657778 
Q 378.963171 253.657778 378.963171 255.007778 
L 378.963171 262.507778 
Q 378.963171 263.857778 380.313171 263.857778 
z
" style="fill: #ffffff; opacity: 0.78"/>
    </g>
    <text style="font-size: 7.5px; font-family: 'SimSun'; text-anchor: start" x="380.313171" y="261.453091" transform="rotate(-0 380.313171 261.453091)">基准模型·零价处置</text>
   </g>
   <g id="PathCollection_6">
    <defs>
     <path id="ma0ee7ca344" d="M -5.59017 5.59017 
L 5.59017 5.59017 
L 5.59017 -5.59017 
L -5.59017 -5.59017 
z
" style="stroke: #ffffff"/>
    </defs>
    <g clip-path="url(#pd52f255b84)">
     <use xlink:href="#ma0ee7ca344" x="87.105785" y="47.437171" style="fill: #b84a62; stroke: #ffffff"/>
    </g>
   </g>
   <g id="text_13">
    <text style="font-size: 7.5px; font-family: 'SimSun'; fill: #4b5563" transform="translate(80.4384 265.375601)">圆点=主模型，方点=基准模型。</text>
    <text style="font-size: 7.5px; font-family: 'SimSun'; fill: #4b5563" transform="translate(80.4384 273.930289)">半价销售情景的超产不计入浪费，但会显著增加超产量。</text>
   </g>
   <g id="legend_1">
    <g id="line2d_19">
     <path d="M 83.6384 25.38444 
L 91.6384 25.38444 
L 99.6384 25.38444 
" style="fill: none; stroke: #ffffff; stroke-width: 1.5; stroke-linecap: square"/>
     <defs>
      <path id="m5ba9f9a9d3" d="M 0 4 
C 1.060812 4 2.078319 3.578535 2.828427 2.828427 
C 3.578535 2.078319 4 1.060812 4 0 
C 4 -1.060812 3.578535 -2.078319 2.828427 -2.828427 
C 2.078319 -3.578535 1.060812 -4 0 -4 
C -1.060812 -4 -2.078319 -3.578535 -2.828427 -2.828427 
C -3.578535 -2.078319 -4 -1.060812 -4 0 
C -4 1.060812 -3.578535 2.078319 -2.828427 2.828427 
C -2.078319 3.578535 -1.060812 4 0 4 
z
" style="stroke: #ffffff"/>
     </defs>
     <g>
      <use xlink:href="#m5ba9f9a9d3" x="91.6384" y="25.38444" style="fill: #b84a62; stroke: #ffffff"/>
     </g>
    </g>
    <g id="text_14">
     <text style="font-size: 8px; font-family: 'SimSun'; text-anchor: start" x="106.0384" y="28.18444" transform="rotate(-0 106.0384 28.18444)">主模型·半价销售</text>
    </g>
    <g id="line2d_20">
     <path d="M 83.6384 37.38444 
L 91.6384 37.38444 
L 99.6384 37.38444 
" style="fill: none; stroke: #ffffff; stroke-width: 1.5; stroke-linecap: square"/>
     <defs>
      <path id="m361f113e73" d="M -4 4 
L 4 4 
L 4 -4 
L -4 -4 
z
" style="stroke: #ffffff; stroke-linejoin: miter"/>
     </defs>
     <g>
      <use xlink:href="#m361f113e73" x="91.6384" y="37.38444" style="fill: #b84a62; stroke: #ffffff; stroke-linejoin: miter"/>
     </g>
    </g>
    <g id="text_15">
     <text style="font-size: 8px; font-family: 'SimSun'; text-anchor: start" x="106.0384" y="40.18444" transform="rotate(-0 106.0384 40.18444)">基准模型·半价销售</text>
    </g>
   </g>
  </g>
  <g id="axes_2">
   <g id="patch_7">
    <path d="M 350.7104 274.592 
L 527.456 274.592 
L 527.456 185.28896 
L 350.7104 185.28896 
z
" style="fill: #fbfcfe"/>
   </g>
   <g id="matplotlib.axis_3">
    <g id="xtick_6">
     <g id="line2d_21">
      <path d="M 365.4392 274.592 
L 365.4392 185.28896 
" clip-path="url(#pf021ecdf44)" style="fill: none; stroke: #e4eaf0; stroke-width: 0.5; stroke-linecap: square"/>
     </g>
     <g id="line2d_22">
      <g>
       <use xlink:href="#ma63fc06d54" x="365.4392" y="274.592" style="stroke: #000000; stroke-width: 0.8"/>
      </g>
     </g>
     <g id="text_16">
      <text style="font-size: 6px; font-family: 'SimSun'; text-anchor: middle" x="365.4392" y="284.24825" transform="rotate(-0 365.4392 284.24825)">2</text>
     </g>
    </g>
    <g id="xtick_7">
     <g id="line2d_23">
      <path d="M 439.0832 274.592 
L 439.0832 185.28896 
" clip-path="url(#pf021ecdf44)" style="fill: none; stroke: #e4eaf0; stroke-width: 0.5; stroke-linecap: square"/>
     </g>
     <g id="line2d_24">
      <g>
       <use xlink:href="#ma63fc06d54" x="439.0832" y="274.592" style="stroke: #000000; stroke-width: 0.8"/>
      </g>
     </g>
     <g id="text_17">
      <text style="font-size: 6px; font-family: 'SimSun'; text-anchor: middle" x="439.0832" y="284.24825" transform="rotate(-0 439.0832 284.24825)">3</text>
     </g>
    </g>
    <g id="xtick_8">
     <g id="line2d_25">
      <path d="M 512.7272 274.592 
L 512.7272 185.28896 
" clip-path="url(#pf021ecdf44)" style="fill: none; stroke: #e4eaf0; stroke-width: 0.5; stroke-linecap: square"/>
     </g>
     <g id="line2d_26">
      <g>
       <use xlink:href="#ma63fc06d54" x="512.7272" y="274.592" style="stroke: #000000; stroke-width: 0.8"/>
      </g>
     </g>
     <g id="text_18">
      <text style="font-size: 6px; font-family: 'SimSun'; text-anchor: middle" x="512.7272" y="284.24825" transform="rotate(-0 512.7272 284.24825)">4</text>
     </g>
    </g>
   </g>
   <g id="matplotlib.axis_4">
    <g id="ytick_5">
     <g id="line2d_27">
      <path d="M 350.7104 242.118167 
L 527.456 242.118167 
" clip-path="url(#pf021ecdf44)" style="fill: none; stroke: #e4eaf0; stroke-width: 0.5; stroke-linecap: square"/>
     </g>
     <g id="line2d_28">
      <g>
       <use xlink:href="#m1580c75726" x="350.7104" y="242.118167" style="stroke: #000000; stroke-width: 0.8"/>
      </g>
     </g>
     <g id="text_19">
      <text style="font-size: 6px; font-family: 'SimSun'; text-anchor: end" x="346.2104" y="244.696292" transform="rotate(-0 346.2104 244.696292)">39</text>
     </g>
    </g>
    <g id="ytick_6">
     <g id="line2d_29">
      <path d="M 350.7104 201.525876 
L 527.456 201.525876 
" clip-path="url(#pf021ecdf44)" style="fill: none; stroke: #e4eaf0; stroke-width: 0.5; stroke-linecap: square"/>
     </g>
     <g id="line2d_30">
      <g>
       <use xlink:href="#m1580c75726" x="350.7104" y="201.525876" style="stroke: #000000; stroke-width: 0.8"/>
      </g>
     </g>
     <g id="text_20">
      <text style="font-size: 6px; font-family: 'SimSun'; text-anchor: end" x="346.2104" y="204.104001" transform="rotate(-0 346.2104 204.104001)">40</text>
     </g>
    </g>
   </g>
   <g id="PathCollection_7">
    <defs>
     <path id="mcdd3b8e612" d="M 0 2.95804 
C 0.784481 2.95804 1.536938 2.646362 2.09165 2.09165 
C 2.646362 1.536938 2.95804 0.784481 2.95804 0 
C 2.95804 -0.784481 2.646362 -1.536938 2.09165 -2.09165 
C 1.536938 -2.646362 0.784481 -2.95804 0 -2.95804 
C -0.784481 -2.95804 -1.536938 -2.646362 -2.09165 -2.09165 
C -2.646362 -1.536938 -2.95804 -0.784481 -2.95804 0 
C -2.95804 0.784481 -2.646362 1.536938 -2.09165 2.09165 
C -1.536938 2.646362 -0.784481 2.95804 0 2.95804 
z
" style="stroke: #ffffff; stroke-width: 0.5"/>
    </defs>
    <g clip-path="url(#pf021ecdf44)">
     <use xlink:href="#mcdd3b8e612" x="464.221545" y="222.417339" style="fill: #2f6690; stroke: #ffffff; stroke-width: 0.5"/>
    </g>
   </g>
   <g id="PathCollection_8">
    <g clip-path="url(#pf021ecdf44)">
     <use xlink:href="#mcdd3b8e612" x="422.869462" y="234.854633" style="fill: #2f6690; stroke: #ffffff; stroke-width: 0.5"/>
    </g>
   </g>
   <g id="PathCollection_9">
    <g clip-path="url(#pf021ecdf44)">
     <use xlink:href="#mcdd3b8e612" x="455.757396" y="253.947019" style="fill: #2f6690; stroke: #ffffff; stroke-width: 0.5"/>
    </g>
   </g>
   <g id="PathCollection_10">
    <defs>
     <path id="m329dedf3d2" d="M 0 2.95804 
C 0.784481 2.95804 1.536938 2.646362 2.09165 2.09165 
C 2.646362 1.536938 2.95804 0.784481 2.95804 0 
C 2.95804 -0.784481 2.646362 -1.536938 2.09165 -2.09165 
C 1.536938 -2.646362 0.784481 -2.95804 0 -2.95804 
C -0.784481 -2.95804 -1.536938 -2.646362 -2.09165 -2.09165 
C -2.646362 -1.536938 -2.95804 -0.784481 -2.95804 0 
C -2.95804 0.784481 -2.646362 1.536938 -2.09165 2.09165 
C -1.536938 2.646362 -0.784481 2.95804 0 2.95804 
z
" style="stroke: #ffffff; stroke-width: 0.5"/>
    </defs>
    <g clip-path="url(#pf021ecdf44)"/>
   </g>
   <g id="PathCollection_11">
    <defs>
     <path id="mdc85da3606" d="M -2.95804 2.95804 
L 2.95804 2.95804 
L 2.95804 -2.95804 
L -2.95804 -2.95804 
z
" style="stroke: #ffffff; stroke-width: 0.5"/>
    </defs>
    <g clip-path="url(#pf021ecdf44)">
     <use xlink:href="#mdc85da3606" x="1713.028778" y="354.96846" style="fill: #3d8b8b; stroke: #ffffff; stroke-width: 0.5"/>
    </g>
   </g>
   <g id="PathCollection_12">
    <defs>
     <path id="mf91a17a445" d="M -2.95804 2.95804 
L 2.95804 2.95804 
L 2.95804 -2.95804 
L -2.95804 -2.95804 
z
" style="stroke: #ffffff; stroke-width: 0.5"/>
    </defs>
    <g clip-path="url(#pf021ecdf44)"/>
   </g>
   <g id="patch_8">
    <path d="M 350.7104 185.28896 
L 123.037803 226.01315 
" style="fill: none; stroke: #9aa5b1; stroke-width: 0.7; stroke-linejoin: miter"/>
   </g>
   <g id="patch_9">
    <path d="M 527.456 274.592 
L 170.947159 249.928384 
" style="fill: none; stroke: #9aa5b1; stroke-width: 0.7; stroke-linejoin: miter"/>
   </g>
   <g id="patch_10">
    <path d="M 350.7104 274.592 
L 350.7104 185.28896 
" style="fill: none; stroke: #000000; stroke-width: 0.8; stroke-linejoin: miter; stroke-linecap: square"/>
   </g>
   <g id="patch_11">
    <path d="M 527.456 274.592 
L 527.456 185.28896 
" style="fill: none; stroke: #000000; stroke-width: 0.8; stroke-linejoin: miter; stroke-linecap: square"/>
   </g>
   <g id="patch_12">
    <path d="M 350.7104 274.592 
L 527.456 274.592 
" style="fill: none; stroke: #000000; stroke-width: 0.8; stroke-linejoin: miter; stroke-linecap: square"/>
   </g>
   <g id="patch_13">
    <path d="M 350.7104 185.28896 
L 527.456 185.28896 
" style="fill: none; stroke: #000000; stroke-width: 0.8; stroke-linejoin: miter; stroke-linecap: square"/>
   </g>
   <g id="text_21">
    <text style="font-size: 6px; font-family: 'SimSun'; text-anchor: start" x="467.221545" y="220.417339" transform="rotate(-0 467.221545 220.417339)">零价</text>
   </g>
   <g id="text_22">
    <text style="font-size: 6px; font-family: 'SimSun'; text-anchor: start" x="425.869462" y="232.854633" transform="rotate(-0 425.869462 232.854633)">η=1%</text>
   </g>
   <g id="text_23">
    <text style="font-size: 6px; font-family: 'SimSun'; text-anchor: start" x="458.757396" y="251.947019" transform="rotate(-0 458.757396 251.947019)">η=3%</text>
   </g>
  </g>
 </g>
 <defs>
  <clipPath id="pd52f255b84">
   <rect x="71.136" y="20.736" width="465.12" height="262.656"/>
  </clipPath>
  <clipPath id="pf021ecdf44">
   <rect x="350.7104" y="185.28896" width="176.7456" height="89.30304"/>
  </clipPath>
 </defs>
</svg>
